<svg width="18" height="20" viewBox="0 0 18 20" fill="none" xmlns="http://www.w3.org/2000/svg" ownerstate="[object Object]" ownerState="[object Object]"><path fill-rule="evenodd" clip-rule="evenodd" d="M5 0C5.55228 0 6 0.447715 6 1V2H12V1C12 0.447715 12.4477 0 13 0C13.5523 0 14 0.447715 14 1V2H16C17.1046 2 18 2.89543 18 4V18C18 19.1046 17.1046 20 16 20H2C0.89543 20 0 19.1046 0 18V4C0 2.89543 0.895431 2 2 2H4V1C4 0.447715 4.44772 0 5 0ZM2 4V6H16V4H2ZM16 8H2V18H16V8ZM4 11.25C4 10.5596 4.55964 10 5.25 10H8.75C9.44036 10 10 10.5596 10 11.25V14.75C10 15.4404 9.44036 16 8.75 16H5.25C4.55964 16 4 15.4404 4 14.75V11.25ZM6 12V14H8V12H6Z" fill="#090909"></path></svg>