<svg width="25" height="25" viewBox="0 0 25 25" fill="none" xmlns="http://www.w3.org/2000/svg">
<path fill-rule="evenodd" clip-rule="evenodd" d="M18.1573 16.2631C20.7936 12.9269 20.5716 8.0708 17.4914 4.99057C14.1719 1.67111 8.79001 1.67111 5.47055 4.99057C2.15109 8.31003 2.15109 13.6919 5.47055 17.0114C8.55078 20.0916 13.4069 20.3136 16.7431 17.6773L20.3198 21.254C20.7103 21.6445 21.3435 21.6445 21.734 21.254C22.1245 20.8635 22.1245 20.2303 21.734 19.8398L18.1573 16.2631ZM16.0772 6.40478C18.6156 8.94319 18.6156 13.0588 16.0772 15.5972C13.5387 18.1356 9.42317 18.1356 6.88476 15.5972C4.34635 13.0588 4.34635 8.94319 6.88476 6.40478C9.42317 3.86637 13.5387 3.86637 16.0772 6.40478Z" fill="black"/>
</svg>
